<svg xmlns="http://www.w3.org/2000/svg" xml:space="preserve" width="98.533in" height="2838.71" style="shape-rendering:geometricPrecision;text-rendering:geometricPrecision;image-rendering:optimizeQuality;fill-rule:evenodd;clip-rule:evenodd" viewBox="0 0 314521.3 94388.16"><path d="M67649.66 93243.73H45442.95L26555.99 60277.39l-6982.23 4578.43v28387.91H0V11514.7h19573.76v36514.56c991.67-1678.47 2079.32-3357.61 3262.29-5036.07 1182.98-1679.15 2346.34-3319.76 3491.46-4922.51L46244.66 11514.7h21405L40406.88 47915.02l27242.78 45328.71zm29777.71-64100.75c8165.2 0 14499.16 1907.62 19001.2 5722.87 4502.72 3815.92 6753.75 9386.03 6753.75 16712.32v41665.56h-13392.58l-3777.39-8470.74h-457.64c-2671.49 3433.99-5494.39 5895.24-8470.74 7383.09-2976.35 1488.51-7058.62 2232.09-12248.13 2232.09-5570.77 0-10187.07-1640.61-13850.22-4921.82-3663.14-3281.23-5494.38-8355.83-5494.38-15223.81 0-6639.5 2346.34-11580.26 7039.68-14823.63 4693.35-3243.36 11580.26-5055.67 20661.41-5436.93l10759.62-343.4v-1831.92c0-3052.07-782.11-5265.23-2346.34-6638.83-1564.9-1373.59-3720.61-2060.4-6467.8-2060.4-2747.2 0-5608.63 438.72-8584.99 1316.14-2975.67 878.1-5990.55 1965.09-9042.62 3262.3l-5837.79-12820.02c3433.99-1831.24 7325.63-3243.36 11675.57-4235.03 4349.96-992.35 9042.62-1487.84 14079.37-1487.84zm686.8 35712.85c-4807.59 152.78-8165.2 1011.27-10072.82 2575.5-1908.3 1564.9-2862.12 3682.08-2862.12 6352.89 0 2365.94 686.8 4082.94 2060.4 5151 1373.59 1068.73 3129.13 1602.76 5265.91 1602.76 3204.83 0 5913.49-972.74 8126.67-2918.89 2213.16-1946.16 3319.75-4597.37 3319.75-7955.64v-5036.08l-5837.79 228.48zm54044.15 28387.91h-19344.6V6249.48h19344.6v86994.26zm19704.91-87795.3c2747.19 0 5150.98 610.41 7211.38 1831.24 2060.4 1220.82 3090.6 3586.76 3090.6 7097.13 0 3433.99-1030.2 5780.33-3090.6 7039.69-2060.4 1258.68-4464.19 1888.69-7211.38 1888.69-2899.97 0-5361.22-630.01-7383.09-1888.69-2022.55-1259.36-3033.82-3605.7-3033.82-7039.69 0-3510.38 1011.27-5876.32 3033.82-7097.13 2021.87-1220.83 4483.12-1831.24 7383.09-1831.24zm9500.26 24953.22v62842.07h-19230.36V30401.66h19230.36zm47406-1144.43c6638.83 0 12000.04 1812.31 16082.31 5436.92 4082.93 3624.62 6123.73 9482.01 6123.73 17570.83v40978.76h-19229.68V57644.45c0-4349.27-725.33-7630.49-2175.31-9843.66-1449.99-2213.18-3738.86-3319.76-6867.99-3319.76-4654.82 0-7821.8 1735.93-9500.26 5208.45-1679.14 3471.85-2518.72 8451.14-2518.72 14937.86v28616.39h-19344.6V30401.66h14651.94l2632.28 8127.35h915.95c1984.02-3052.75 4654.82-5361.22 8012.42-6925.44 3357.61-1564.22 7097.15-2346.34 11217.94-2346.34zm59996.86-114.25c8165.2 0 14499.15 1907.62 19001.2 5722.87 4502.72 3815.92 6753.74 9386.03 6753.74 16712.32v41665.56h-13392.58l-3777.39-8470.74h-457.64c-2671.49 3433.99-5494.38 5895.24-8470.74 7383.09-2976.35 1488.51-7058.6 2232.09-12248.13 2232.09-5570.77 0-10187.07-1640.61-13850.21-4921.82-3663.15-3281.23-5494.39-8355.83-5494.39-15223.81 0-6639.5 2346.34-11580.26 7039.68-14823.63 4693.35-3243.36 11580.26-5055.67 20661.43-5436.93l10759.61-343.4v-1831.92c0-3052.07-782.11-5265.23-2346.34-6638.83-1564.89-1373.59-3720.61-2060.4-6467.8-2060.4s-5608.63 438.72-8584.98 1316.14c-2975.68 878.1-5990.56 1965.09-9042.63 3262.3l-5837.79-12820.02c3433.99-1831.24 7325.63-3243.36 11675.57-4235.03 4349.96-992.35 9042.63-1487.84 14079.38-1487.84zm686.79 35712.85c-4807.59 152.78-8165.2 1011.27-10072.82 2575.5-1908.3 1564.9-2862.12 3682.08-2862.12 6352.89 0 2365.94 686.8 4082.94 2060.4 5151 1373.59 1068.73 3129.13 1602.76 5265.91 1602.76 3204.83 0 5913.5-972.74 8126.67-2918.89 2213.16-1946.16 3319.75-4597.37 3319.75-7955.64v-5036.08l-5837.79 228.48z" style="fill:#2b2b2b;fill-rule:nonzero"/><path d="M171816.59 0c6620.58 0 11987.21 5366.63 11987.21 11987.21 0 6619.9-5366.63 11986.52-11987.21 11986.52-6619.9 0-11986.52-5366.62-11986.52-11986.52C159830.07 5366.63 165196.69 0 171816.59 0z" style="fill:#e32b56"/></svg>