<svg xmlns="http://www.w3.org/2000/svg" xml:space="preserve" width="3691.546" height="688.715" style="shape-rendering:geometricPrecision;text-rendering:geometricPrecision;image-rendering:optimizeQuality;fill-rule:evenodd;clip-rule:evenodd" viewBox="0 0 44024.39 8213.42"><defs><style>.fil2{fill:#2b2b2b}.fil1{fill:#e62e59}.fil0{fill:#2b2b2b;fill-rule:nonzero}</style></defs><g id="Layer_x0020_1"><g id="_1992570889584"><path d="m27137.27 8012.07-11.33-7922.5h1844.84l4368.65 5274.07h-860.11l-11.33-5274.07h2195.65v7922.5H32818.8l-4368.64-5274.08h871.43v5274.08zM23876.84 8012.07l-11.33-7922.5h2240.97v7922.5zM16972.93 8012.07l-11.33-7922.5h2229.64l11.33 6018.65 4105.1 11.34 11.33 1892.51zM0 7977.04V124.61h2235.12v7852.43zM7214.55 8012.07l3497.21-7922.5h2140.26l3497.21 7922.5h-2286.29l-2281.05-5491.06-2281.05 5491.06z" class="fil0"/><circle cx="11781.91" cy="6443.8" r="1341.17" class="fil1"/><path d="M2738.37 4012.07c1104.87 142.17 2233.26-182.48 3050.31-984.71 817.04-802.23 1147.66-1910.13 1002.83-2994.93-1104.87-142.17-2233.26 182.48-3050.31 984.71-817.05 802.23-1147.66 1910.13-1002.83 2994.93zM2738.37 4201.35c1104.87-142.17 2233.26 182.48 3050.31 984.71 817.04 802.23 1147.66 1910.13 1002.83 2994.93-1104.87 142.17-2233.26-182.48-3050.31-984.71-817.05-802.23-1147.66-1910.13-1002.83-2994.93z" class="fil2"/><path d="m34889.72 8012.07 3497.21-7922.5h2140.25l3497.21 7922.5h-2286.28l-2281.06-5491.06L37176 8012.07z" class="fil0"/><circle cx="39457.07" cy="6443.8" r="1341.17" class="fil1"/></g></g></svg>