<svg xmlns="http://www.w3.org/2000/svg" xml:space="preserve" width="4540.435" height="5503.997" style="shape-rendering:geometricPrecision;text-rendering:geometricPrecision;image-rendering:optimizeQuality;fill-rule:evenodd;clip-rule:evenodd" viewBox="0 0 61940.78 75085.82"><path d="m37160.99 1244.96 15718.75 9075.23 101.88 55.84 50.12 31.92 24.58 14.19 23.3 16.43 26.82 15.49-1.29 2.23 24.59 14.2-1.29 2.23 24.59 14.2-1.29 2.23 24.59 14.19-1.29 2.24 24.59 14.19-1.29 2.24 24.59 14.19-1.29 2.24 23.3 16.43-1.29 2.24 24.59 14.19-1.29 2.24 23.3 16.43-1.29 2.23 23.3 16.43-1.29 2.24 23.3 16.43-1.29 2.24 21.06 15.14-1.29 2.24 23.3 16.43-1.29 2.23 22.01 18.67-1.29 2.23 21.07 15.14-1.29 2.23 22.01 18.67-1.29 2.23 19.77 17.38-1.29 2.24 22.01 18.66-1.29 2.24 19.77 17.38-1.29 2.23 22.01 18.67-1.29 2.23 19.77 17.38-1.29 2.24 19.77 17.38-1.29 2.23 18.48 19.61-1.29 2.24 20.72 20.9-1.29 2.23 19.77 17.38-1.29 2.24 18.48 19.61-1.29 2.24 18.48 19.61-1.29 2.24 18.48 19.61-1.29 2.23 14.96 20.56-1.29 2.23 18.48 19.61-1.29 2.24 18.48 19.61-1.29 2.24 17.19 21.85-1.29 2.23 14.95 20.56-1.29 2.24 17.19 21.85-1.29 2.23 16.25 18.32-1.29 2.23 17.19 21.85-1.29 2.24 13.67 22.79-1.29 2.24 14.96 20.56-1.29 2.23 14.95 20.56-1.29 2.24 15.9 24.08-1.29 2.24 14.96 20.56-1.29 2.23 13.66 22.79-1.29 2.24 11.43 21.5-1.29 2.24 13.66 22.79-1.29 2.24 13.66 22.79-1.29 2.23 13.66 22.79-1.29 2.23 11.43 21.5-1.29 2.24 13.66 22.79-1.29 2.24 10.14 23.73-1.29 2.24 13.66 22.79-1.29 2.24 10.14 23.73-1.29 2.24 11.43 21.5-1.29 2.24 10.14 23.73-1.29 2.24 10.14 23.73-1.29 2.24 10.14 23.73-1.29 2.24 10.14 23.74-1.29 2.23 10.14 23.74-1.29 2.23 10.14 23.74-1.29 2.23 6.62 24.68-1.29 2.24 10.14 23.73-1.29 2.24 7822.58 29194.27-1.29 2.24 7.56 28.2 8.85 25.97-1.29 2.24 6.27 30.44 6.61 24.68-1.29 2.23 7.56 28.21 5.32 26.91-1.29 2.24 5.32 26.91 5.33 26.92-1.29 2.23 4.03 29.15 6.62 24.68-1.29 2.24 4.03 29.15 5.32 26.92-1.29 2.23 1.79 27.86 5.33 26.91-1.29 2.24 1.8 27.86 3.09 25.63-1.29 2.23 1.8 27.86 1.79 27.86-1.29 2.24-.44 26.57 3.09 25.63-1.29 2.24.51 30.1.85 24.34-1.29 2.23-1.73 28.81.85 24.34-1.29 2.23-1.73 28.81-.44 26.57-1.29 2.24-.44 26.57-2.67 25.28-1.29 2.24-1.73 28.81-2.67 25.28-1.29 2.23-13.28 105.59-2.58 4.47-3.97 27.52-2.68 25.28-1.29 2.23-6.2 26.23-4.91 23.99-1.29 2.24-3.97 27.51-4.91 23.99-1.29 2.23-7.49 28.46-4.91 23.99-1.29 2.23-8.44 24.93-4.91 23.99-1.29 2.24-9.73 27.17-4.91 23.99-1.29 2.23-9.72 27.17-7.15 22.7-1.29 2.24-8.44 24.93-8.44 24.93-1.29 2.23-10.67 23.65-8.44 24.93-1.29 2.23-10.67 23.65-8.44 24.93-1.29 2.23-10.67 23.65-10.67 23.65-1.29 2.23-10.67 23.65-10.67 23.64-1.29 2.24-12.91 22.35-10.67 23.65-1.29 2.23-12.91 22.36-10.67 23.64-1.29 2.24-12.91 22.35-12.91 22.36-1.29 2.23-25.81 44.71L45615.5 70425.83c-1284.11 2224.14-3361.84 3721.85-5667.77 4339.72-2305.92 617.87-4850.62 358.74-7074.76-925.37L4654.33 57548.14c-2215.2-1278.95-3711.96-3353.15-4332.07-5660.37-620.36-2322.26-361.23-4866.96 917.71-7082.16L24418.44 4659.32c1284.11-2224.14 3358.31-3720.9 5664.24-4338.77 2305.92-617.87 4854.14-359.69 7078.28 924.42zM17591.66 39579.58l-1257.01 2177.2c-176.81 306.24-571.7 412.06-877.94 235.24l-2959.56-1708.7c-306.24-176.81-414.29-573-237.48-879.24L18299.5 28942.8c176.81-306.24 573.94-410.76 880.18-233.96l4779.11 2759.22c923.19 533 1777.88 1205.28 2406.01 2068.65 563.84 778.56 907.01 1650.26 956.83 2611.89 51.97 983.74-222.03 1907.44-711.15 2754.62-485.25 840.48-1146.56 1531.62-2020.61 1971.78-853.85 430.96-1779.05 567.39-2729.81 474.48-1067.87-106.88-2082.25-507.75-3005.43-1040.75l-1262.95-729.17zm5545.06 6104.38 6022.89-10468.08c89.04-154.24 221.07-253.86 393.84-300.15 169.24-45.35 333.39-25.09 487.63 63.96l4946.75 2856.01c1137.78 656.9 2147.28 1504.99 2888.68 2600.65 677.45 1005.09 1067.57 2115.51 1118.52 3328.16 53.25 1270.6-328.24 2463.07-961.81 3539.8-620.86 1096-1463.42 2013.32-2583.71 2606.38-1076.94 564.43-2234.95 784.02-3447.64 700.83-1320.86-92-2558.79-544.45-3696.57-1201.34l-4933.34-2848.27c-306.24-176.81-413.34-569.47-235.24-877.94zm20103.48 3049.96 4067.08 2330.25c155.53 86.81 255.15 218.84 301.44 391.61 46.3 172.77 22.51 337.86-66.54 492.1l-1324.62 2263.34c-179.04 304.95-572.65 408.52-878.88 231.72l-4060.37-2326.38-1756.71 3027.22c-178.1 308.48-571.71 412.05-877.95 235.24l-2943.91-1699.67c-154.24-89.05-253.86-221.08-301.44-391.61-44.06-171.48-23.8-335.63 63.96-487.63l6055.47-10452.25c179.04-304.95 571.71-412.05 880.18-233.96l8187.97 4727.32c154.23 89.05 253.85 221.08 300.15 393.84 45 175 21.22 340.09-70.07 493.04l-1340.27 2254.31c-179.99 301.42-572.31 402.76-876.31 227.25l-4663.91-2674.83-695.27 1199.08zM19581.7 36132.73l1084.13 625.92c319.65 184.55 785.47 399.85 1163.6 323.09 317.24-64.22 518.61-278.78 674.76-549.26 157.45-272.71 251.27-564.27 146.03-872.4-121.3-368.07-540.66-663.84-860.31-848.39l-1084.13-625.92-1124.08 1946.97zm9299.83 8975.57 1309.89 756.27c2.24 1.29 4.47 2.58 8.95 5.16 439.66 265.76 936.62 463.27 1454.53 485.11 451.01 18.97 863.19-85.8 1256.06-312 443.28-256.71 783.75-650.27 1044.69-1086.75 247.54-444.23 424.23-941.28 422.68-1454.8.4-449.81-120.71-859.51-361.71-1237.08-277.86-437.6-698.68-766.99-1147.38-1017.11-4.47-2.58-8.94-5.16-11.18-6.46l-1302.5-763.91-2674.04 4631.58zm27678.1-2734.11-10429.99-6021.76c-2215.2-1278.94-3711.96-3353.15-4332.07-5660.37-620.36-2322.26-361.23-4866.95 917.71-7082.15l6021.76-10429.99-13850.03-7996.31c-1133.3-654.32-2442.46-787.25-3627.15-469.81-1181.17 316.49-2248.46 1086.19-2902.77 2219.49L5178.62 47079.58c-658.19 1140.01-792.06 2445.64-479.09 3627.75 320.02 1180.22 1088.77 2243.99 2228.78 2902.18l28218.64 16292.04c1133.3 654.31 2442.46 787.24 3623.62 470.75 1184.69-317.44 2251.99-1087.13 2906.3-2220.44l14882.75-25777.68zm-8156.02-9960.39 7642.55 4412.43-4978.52-18587.14-4413.72 7644.79c-658.19 1140.01-792.06 2445.63-479.09 3627.75 320.02 1180.22 1088.77 2243.99 2228.78 2902.17z" style="fill:#e32b56;fill-rule:nonzero"/></svg>